<?xml version="1.0" encoding="utf-8"?>
<!-- Generator: Adobe Illustrator 25.0.1, SVG Export Plug-In . SVG Version: 6.00 Build 0)  -->
<svg version="1.1" id="Layer_1" xmlns="http://www.w3.org/2000/svg" xmlns:xlink="http://www.w3.org/1999/xlink" x="0px" y="0px"
	 viewBox="0 0 220 100" style="enable-background:new 0 0 220 100;" xml:space="preserve">
<style type="text/css">
	.st0{fill:#FFFFFF;}
</style>
<g>
	<g>
		<path class="st0" d="M184.3,48.3v15.2h-5.2v-7.2h-13.6v7.2h-5.2V48.3c0-5.8,4.8-9.6,12-9.6S184.3,42.5,184.3,48.3z M167.8,36h-2.8
			c0-2.9,1.7-4.8,4.2-4.8c2.5,0,4.3,1.9,5.9,1.9c0.9,0,1.5-0.5,1.5-1.5h2.8c0,3-1.7,4.8-4.2,4.8c-2.3,0-4.4-1.9-6-1.9
			C168.5,34.5,167.8,35.1,167.8,36z M179.1,52.5v-4c0-3.5-2.7-5.9-6.7-5.9c-4.1,0-6.8,2.4-6.8,5.9v4H179.1z"/>
	</g>
	<g>
		<path class="st0" d="M188.9,51.2c0-7.6,5.8-12.6,14.5-12.6c8.6,0,14.4,5,14.4,12.6c0,7.6-5.8,12.6-14.4,12.6
			C194.7,63.8,188.9,58.8,188.9,51.2z M212.4,51.2c0-5.2-3.6-8.7-9-8.7c-5.4,0-9,3.5-9,8.7c0,5.2,3.6,8.7,9,8.7
			C208.8,60,212.4,56.5,212.4,51.2z"/>
	</g>
</g>
<g>
	<g>
		<path class="st0" d="M142,50.7l13.5,12.9h-10.2c-1.1,0-2.2-0.5-3-1.3l-5.4-5.4L115,79c-0.8,0.8-2,1.3-3.1,1.3h-10.2l29.9-29.6h0
			l-12-11.6h10.3c1.1,0,2.1,0.4,2.8,1.2l4.1,4.2l21.8-22.1c0.9-0.9,2-1.4,3.3-1.4h10.1L142,50.7L142,50.7z"/>
	</g>
</g>
<g>
	<g>
		<path class="st0" d="M2.2,51.2c0-7.5,5.8-12.5,14.6-12.5c4.5,0,8.1,1.3,10.9,3.9l-3.3,3c-1.6-1.8-4.2-3-7.5-3
			c-5.5,0-9.2,3.5-9.2,8.7c0,5.3,3.8,8.7,9.3,8.7c3.7,0,6.3-1.5,8-3.9l3.5,2.8c-2.6,3.2-6.7,4.9-11.7,4.9
			C8.1,63.8,2.2,58.8,2.2,51.2z"/>
	</g>
	<g>
		<path class="st0" d="M30.2,51.2c0-7.6,5.8-12.6,14.5-12.6c8.6,0,14.4,5,14.4,12.6c0,7.6-5.8,12.6-14.4,12.6
			C36,63.8,30.2,58.8,30.2,51.2z M53.7,51.2c0-5.2-3.6-8.7-9-8.7s-9,3.5-9,8.7s3.6,8.7,9,8.7S53.7,56.5,53.7,51.2z"/>
	</g>
	<g>
		<path class="st0" d="M64,39h3.3l17.3,16.6L84.5,39h5.2v24.5h-3.2L69.1,46.9l0.1,16.6H64V39z"/>
	</g>
	<g>
		<path class="st0" d="M115.2,59.6v3.9h-19V39h18.7v3.9h-13.5v6.3h12.3V53h-12.3v6.6H115.2z"/>
	</g>
</g>
<g>
	<path class="st0" d="M131.7,77.6v1.2H126v-7.3h5.6v1.2h-4v1.9h3.7v1.1h-3.7v2H131.7z"/>
	<path class="st0" d="M135.5,71.4h1l5.2,5l0-5h1.6v7.3h-1l-5.2-5l0,5h-1.6V71.4z"/>
	<path class="st0" d="M153.1,72.6h-2.5v6.2H149v-6.2h-2.5v-1.2h6.6V72.6z"/>
	<path class="st0" d="M162.1,77.6v1.2h-5.7v-7.3h5.6v1.2h-4v1.9h3.7v1.1H158v2H162.1z"/>
	<path class="st0" d="M169.2,76h-1.7v2.7h-1.6v-7.3h3.4c1.7,0,2.9,0.9,2.9,2.3c0,1-0.6,1.7-1.5,2l2.2,3H171L169.2,76z M167.5,74.9
		h1.6c0.9,0,1.6-0.5,1.6-1.2s-0.6-1.2-1.4-1.2h-1.7V74.9z"/>
	<path class="st0" d="M182.5,73.8c0,1.5-1.2,2.5-2.9,2.5h-1.7v2.5h-1.6v-7.3h3.3C181.3,71.4,182.5,72.3,182.5,73.8z M180.9,73.8
		c0-0.8-0.6-1.3-1.4-1.3h-1.6v2.5h1.6C180.3,75.1,180.9,74.6,180.9,73.8z"/>
	<path class="st0" d="M189.2,76h-1.7v2.7H186v-7.3h3.4c1.7,0,2.9,0.9,2.9,2.3c0,1-0.6,1.7-1.5,2l2.2,3h-1.8L189.2,76z M187.6,74.9
		h1.6c0.9,0,1.6-0.5,1.6-1.2s-0.6-1.2-1.4-1.2h-1.7V74.9z"/>
	<path class="st0" d="M196.3,71.4h1.6v7.3h-1.6V71.4z"/>
	<path class="st0" d="M201.8,77.9l0.6-0.9c0.7,0.5,1.5,0.7,2.2,0.7c1,0,1.6-0.3,1.6-0.9c0-0.6-0.7-0.9-1.7-1.1l-0.5-0.1
		c-1.4-0.3-2.4-0.8-2.4-2c0-1.3,1.2-2.2,3-2.2c1.1,0,2,0.3,2.8,0.8l-0.7,1c-0.6-0.4-1.3-0.7-2.1-0.7c-0.9,0-1.4,0.3-1.4,0.8
		c0,0.6,0.7,0.8,1.5,1l0.5,0.1c1.3,0.3,2.6,0.9,2.6,2.2c0,1.3-1.3,2.2-3.2,2.2C203.5,78.8,202.5,78.5,201.8,77.9z"/>
	<path class="st0" d="M217.2,77.6v1.2h-5.7v-7.3h5.6v1.2h-4v1.9h3.7v1.1h-3.7v2H217.2z"/>
</g>
</svg>
